<svg xmlns="http://www.w3.org/2000/svg" width="124.211" height="150" viewBox="0 0 124.211 150"><g transform="translate(-769.105 -365.479)"><path d="M833.365,476.442a3.87,3.87,0,0,1-1.354-1.451l-.5-.961V463.116c0-12.5,0-12.181,1.834-13.272a2.759,2.759,0,0,1,2.074-.492c.895.087,1.571.437,4.366,2.249l8.208,5.37c5.239,3.405,5.786,3.82,6.265,4.748a3.275,3.275,0,0,1-.818,3.787c-.536.492-13.262,8.732-15.782,10.271-1.9,1.092-3.089,1.3-4.257.611Z" transform="translate(-11.194 -15.085)" fill="#707070"/><path d="M807.531,497.108a3.274,3.274,0,0,1-1.866-3.362A3.359,3.359,0,0,1,807.2,491a169.373,169.373,0,0,1,30.179-.5c21.72,0,29.732,0,30.179.185a4.43,4.43,0,0,1,2.117,2.6,3.273,3.273,0,0,1-.829,3.068c-1.091,1.342.7,1.266-31.173,1.266H808.47Z" transform="translate(-6.578 -22.74)" fill="#707070"/><path d="M799.864,507.716a18.112,18.112,0,0,1-11.581-12.793l-.589-1.953-.066-26.348c-.066-29.851-.142-28.378,1.659-32.646a16.291,16.291,0,0,1,9.594-9.375,225,225,0,0,1,35.723-.546c37.874,0,35.026-.13,38.2,1.834a16.7,16.7,0,0,1,7.106,8.863c1.473,3.711,1.462,3.329,1.473,31.238,0,20.956,0,25.278-.317,27.014a21.622,21.622,0,0,1-5.8,11.286,11.038,11.038,0,0,1-3.69,2.5c-3.067,1.386-1.44,1.321-37.109,1.3-27.167,0-33.4-.087-34.643-.382ZM869.1,498a11.358,11.358,0,0,0,4.606-7.182c.294-1.419.338-4.508.283-25.551a171.433,171.433,0,0,0-.481-25.256,10.67,10.67,0,0,0-4.66-6.156l-1.223-.7h-66.24l-1.463.84a10.274,10.274,0,0,0-4.736,7.5c-.132.819-.208,10.609-.208,24.711,0,18.97.055,23.608.306,24.71a9.948,9.948,0,0,0,5.937,7.706c.47.131,15.018.218,33.726.2h32.908Z" transform="translate(-3.341 -10.843)" fill="#707070"/><path d="M829.3,514.413c-.142-.142-4.671-.208-12.8-.208-14.844,0-12.006,0-18.991-.131a31.232,31.232,0,0,1-11.647-1.528,25.856,25.856,0,0,1-16.207-17.976l-.481-1.768-.066-36.815c0-25.9,0-37.306.175-38.485a25.507,25.507,0,0,1,16.731-19.712,50.087,50.087,0,0,1,16.832-1.091h11.514l.72-1.463a29.3,29.3,0,0,1,1.887-3.143l1.169-1.681-2.183-2.882c-2.4-3.143-4.2-5.381-6.548-8.153-1.463-1.7-1.583-1.79-2.423-1.79a7.324,7.324,0,0,1-4.1-2,5.513,5.513,0,0,1-1.516-4.191,4.183,4.183,0,0,1,.589-2.739,5.709,5.709,0,0,1,5.272-3.089,5.042,5.042,0,0,1,4.1,1.714,6.042,6.042,0,0,1,1.779,3.841c.132,1.091.306,1.419,2.02,3.58l5.108,6.483c1.78,2.27,3.362,4.257,3.515,4.366s.5.229,1.757-.153a18.391,18.391,0,0,1,11.863.153l.983.415,5.457-6.832c5.457-6.8,5.457-6.833,5.457-7.88a5.785,5.785,0,0,1,9.9-4.06,5.884,5.884,0,0,1-.219,8.732,6.3,6.3,0,0,1-3.6,1.582c-.819,0-.895.087-8.186,9.157l-2.9,3.613,1.2,1.747a27.446,27.446,0,0,1,1.866,3.166l.666,1.407,12.42.076,12.421.076,2.063.568a25.236,25.236,0,0,1,15.587,12.486,26.2,26.2,0,0,1,2.662,8.46c.153,1.451.207,13.926.164,38.419l-.066,36.269-.589,2.183a25.918,25.918,0,0,1-7.007,11.777,24.2,24.2,0,0,1-12.279,6.658,51.157,51.157,0,0,1-12.006.5c-5.337,0-9.659.076-9.6.164s0,.207-.131.284-.2,0-.164-.109-.251-.251-7.979-.218h-10.5a7.457,7.457,0,0,1-1.789.066c-1.2,0-1.682,0-1.463.164s.219.208.1.208a.738.738,0,0,1-.523-.164Zm43.353-8.612a16.379,16.379,0,0,0,4.563-2.183,18.475,18.475,0,0,0,6.548-7.291c1.92-3.635,1.745.207,1.822-40.777.066-40.035.153-37.481-1.277-40.744a18.108,18.108,0,0,0-11.493-10.162l-1.615-.513H831.263c-37.677,0-40.045,0-41.377.382a18.119,18.119,0,0,0-12.911,13.4c-.306,1.648-.338,5.828-.284,38l.055,36.16.677,1.9a18.763,18.763,0,0,0,13,11.875,386.724,386.724,0,0,0,41.268.382h39.532ZM839.634,396.514A9.481,9.481,0,0,0,837.54,394a12.407,12.407,0,0,0-4.956-2.118,11.056,11.056,0,0,0-5.873.982,9.947,9.947,0,0,0-3.645,3.155l-.394.665h8.48c4.661,0,8.48-.076,8.48-.186Z" transform="translate(0 0)" fill="#707070"/><path d="M825.953,547.261a1,1,0,0,1,.3-.361c.165-.142.35-.186.471,0s.087.207,0,.12-.306,0-.47.077S825.953,547.315,825.953,547.261Z" transform="translate(-10.21 -32.466)" fill="#707070"/><path d="M867.083,547.32c.088-.219.207-.339.274-.273s0,.24-.153.393S866.963,547.636,867.083,547.32Z" transform="translate(-17.549 -32.547)" fill="#707070"/><path d="M866.168,547.5a1.432,1.432,0,0,1,.381-.381c.338-.273.349-.262.087.087S866.168,547.673,866.168,547.5Z" transform="translate(-17.409 -32.518)" fill="#707070"/><path d="M837.16,547.368c-.076-.131-.1-.284,0-.339s.164,0,.23.229S837.411,547.717,837.16,547.368Z" transform="translate(-12.228 -32.54)" fill="#707070"/><path d="M875.958,547.762a1.361,1.361,0,0,1,.382-.381c.349-.273.349-.262.087.087S875.958,547.937,875.958,547.762Z" transform="translate(-19.166 -32.564)" fill="#707070"/><path d="M843.767,547.571c0-.349.731-.426.938-.1.087.142,0,.175-.109.077a.5.5,0,0,0-.536.065C843.844,547.789,843.767,547.778,843.767,547.571Z" transform="translate(-13.399 -32.58)" fill="#707070"/><path d="M863.875,547.813c0-.175.087-.262.186-.2a.228.228,0,0,1,.055.316C863.941,548.206,863.875,548.174,863.875,547.813Z" transform="translate(-16.993 -32.636)" fill="#707070"/></g></svg>