<?xml version="1.0" encoding="UTF-8" standalone="no"?>
<!-- Created with Inkscape (http://www.inkscape.org/) -->

<svg
   width="156.50465mm"
   height="186.15663mm"
   viewBox="0 0 156.50465 186.15663"
   version="1.1"
   id="svg5"
   xml:space="preserve"
   inkscape:version="1.2.2 (b0a8486, 2022-12-01)"
   sodipodi:docname="STpubliclibraryicon.svg"
   xmlns:inkscape="http://www.inkscape.org/namespaces/inkscape"
   xmlns:sodipodi="http://sodipodi.sourceforge.net/DTD/sodipodi-0.dtd"
   xmlns="http://www.w3.org/2000/svg"
   xmlns:svg="http://www.w3.org/2000/svg"><sodipodi:namedview
     id="namedview7"
     pagecolor="#ffffff"
     bordercolor="#000000"
     borderopacity="0.25"
     inkscape:showpageshadow="2"
     inkscape:pageopacity="0.0"
     inkscape:pagecheckerboard="0"
     inkscape:deskcolor="#d1d1d1"
     inkscape:document-units="mm"
     showgrid="false"
     inkscape:zoom="0.56760605"
     inkscape:cx="338.26278"
     inkscape:cy="418.42401"
     inkscape:window-width="1440"
     inkscape:window-height="811"
     inkscape:window-x="0"
     inkscape:window-y="23"
     inkscape:window-maximized="1"
     inkscape:current-layer="layer1" /><defs
     id="defs2" /><g
     inkscape:label="Layer 1"
     inkscape:groupmode="layer"
     id="layer1"
     transform="translate(-813.74786,-389.14742)"><path
       style="fill:#000000;stroke-width:1"
       d="m 883.99289,574.94573 c -15.18535,-1.84258 -29.77118,-8.64342 -40.57813,-18.9201 -2.23882,-2.12897 -6.11858,-6.64695 -8.29308,-9.65729 -5.41573,-7.49744 -9.40257,-16.99754 -11.30239,-26.932 -1.1582,-6.05641 -1.2369,-16.6718 -0.1691,-22.80967 3.95884,-22.75611 19.51448,-42.41314 40.6349,-51.34871 9.56626,-4.04727 17.83695,-5.78159 27.51301,-5.76936 8.08485,0.0102 13.16888,0.78001 20.21357,3.06059 11.76259,3.80793 21.30797,9.7505 29.92812,18.63206 5.00652,5.15835 8.53189,10.08807 11.66797,16.31597 6.86582,13.63478 8.95011,28.85554 5.93196,43.31882 -2.80752,13.45394 -8.80714,24.63341 -18.246,33.99896 -7.09433,7.03924 -14.48241,11.96528 -22.97206,15.31674 -6.60406,2.60709 -13.0097,4.25937 -19.03865,4.91084 -3.40934,0.36841 -11.82069,0.30412 -15.29012,-0.11685 z m -7.02468,-9.08745 c -0.13825,-0.12183 -1.32292,-0.97526 -2.63261,-1.89651 -1.36781,-0.96213 -3.83044,-3.1481 -5.78636,-5.1363 -2.90811,-2.95609 -4.313,-4.66141 -8.54055,-10.36687 l -0.56858,-0.76735 -2.07725,1.04438 c -2.24193,1.12718 -6.44288,3.54351 -6.44288,3.70586 0,0.25847 6.46402,4.84798 8.59177,6.10023 3.99958,2.35387 8.84849,4.60321 13.13648,6.0938 4.15801,1.44542 4.76881,1.6183 4.31998,1.22276 z m 34.27677,-1.17287 c 7.2239,-2.50414 13.94151,-6.17382 19.64531,-10.7318 0.98226,-0.78495 1.78593,-1.46235 1.78593,-1.50534 0,-0.1664 -5.66608,-3.3795 -6.99911,-3.96903 l -1.40681,-0.62216 -0.53036,0.57854 c -0.2917,0.3182 -0.96563,1.26591 -1.49763,2.10603 -2.80506,4.42967 -7.8859,9.78344 -12.6163,13.29404 -1.51066,1.12112 -2.80595,2.09436 -2.87841,2.16275 -0.25323,0.23903 1.4787,-0.26661 4.49738,-1.31303 z m -23.01875,-12.79988 v -10.75467 l -2.57969,0.18117 c -6.4549,0.45334 -17.87134,2.80729 -18.23704,3.76029 -0.44898,1.17002 6.96174,9.15871 11.6684,12.57842 2.48678,1.80683 8.16724,4.98947 8.90532,4.98947 0.14363,0 0.24301,-4.398 0.24301,-10.75468 z m 10.3422,9.61219 c 4.26944,-2.17853 9.25925,-5.96013 12.71031,-9.63268 1.84164,-1.95983 5.52249,-6.43358 5.52249,-6.71209 0,-0.76621 -15.91569,-3.9392 -19.77761,-3.94291 l -1.12448,-0.001 v 10.71562 c 0,5.8936 0.0968,10.71563 0.21513,10.71563 0.11832,0 1.2227,-0.51412 2.45416,-1.14249 z m -52.41827,-15.38935 c 1.23152,-0.77742 6.11718,-3.25955 8.27555,-4.20434 0.83674,-0.36627 1.52135,-0.71495 1.52135,-0.77483 0,-0.0599 -0.70075,-1.58449 -1.55722,-3.388 -3.67472,-7.73802 -5.83164,-15.89094 -6.52639,-24.66903 l -0.18519,-2.33992 -8.36716,0.14122 c -4.60194,0.0777 -8.39693,0.14836 -8.43331,0.1571 -0.20021,0.0481 -0.013,3.01895 0.33712,5.35007 1.12523,7.49169 4.16963,16.00297 7.98632,22.32752 1.1712,1.94076 5.58333,8.05705 5.81215,8.05705 0.053,0 0.56451,-0.29558 1.13678,-0.65684 z m 93.87681,-1.26139 c 3.49587,-4.4099 6.71109,-10.05289 9.0155,-15.82299 2.14379,-5.36788 3.22645,-9.77042 3.60929,-14.67682 0.0906,-1.16055 0.2197,-2.37965 0.28699,-2.70912 l 0.12234,-0.59904 -8.40649,0.0699 -8.4065,0.0699 -0.0704,1.05834 c -0.12795,1.92463 -1.14832,8.6931 -1.65531,10.9802 -1.09265,4.92903 -2.83405,9.96159 -5.25421,15.1844 -0.59946,1.29366 -1.08992,2.43833 -1.08992,2.54372 0,0.10539 1.10133,0.73004 2.44739,1.38813 1.34607,0.65808 3.63802,1.86156 5.09323,2.67441 1.45521,0.81284 2.72488,1.48122 2.82149,1.48528 0.0966,0.004 0.76556,-0.73674 1.48655,-1.64625 z m -17.62502,-10.00947 c 3.19505,-6.98371 5.55571,-15.89279 5.829,-21.99853 l 0.0797,-1.77936 -16.13958,-0.0727 -16.13959,-0.0727 -0.069,11.18584 c -0.0544,8.82066 0.002,11.20597 0.26459,11.281 0.18348,0.0523 2.17907,0.29813 4.43464,0.54622 6.7521,0.74268 14.43293,2.36398 18.65313,3.93737 0.58208,0.21702 1.17658,0.36402 1.32111,0.32667 0.14454,-0.0374 0.93926,-1.54655 1.76607,-3.35376 z m -55.63425,2.27937 c 1.68849,-0.5044 4.48594,-1.22288 6.21654,-1.59663 3.13116,-0.67621 12.57353,-1.98421 14.32393,-1.98421 h 0.91806 v -11.38238 -11.38239 l -16.32072,0.0714 -16.32071,0.0715 0.0579,1.71979 c 0.14655,4.35486 1.55014,10.96945 3.52615,16.61746 1.21869,3.48335 3.76956,8.78254 4.22765,8.78254 0.16568,0 1.68274,-0.41269 3.37123,-0.91708 z m -19.09704,-34.10999 c 0.0338,-0.0338 0.23772,-1.73587 0.45318,-3.78239 0.80416,-7.63829 2.71035,-14.48792 5.99978,-21.55942 0.85737,-1.84315 1.55886,-3.42072 1.55886,-3.50573 0,-0.085 -0.13445,-0.15455 -0.29879,-0.15455 -0.16433,0 -2.57409,-1.14392 -5.35503,-2.54203 l -5.05624,-2.54203 -0.99678,1.15297 c -4.00138,4.62836 -8.11308,12.09522 -10.34809,18.79214 -1.11286,3.33457 -2.49735,9.55603 -2.72448,12.243 l -0.16744,1.98076 2.74999,0.0758 c 2.81895,0.0777 14.07458,-0.0481 14.18504,-0.15854 z m 40.55557,-10.59249 v -10.69457 l -1.65365,-0.15097 c -6.31812,-0.57685 -8.12515,-0.8006 -11.17864,-1.38423 -4.00168,-0.76486 -6.83663,-1.45251 -9.77007,-2.36985 -1.15343,-0.36069 -2.26182,-0.59262 -2.4631,-0.51538 -0.46154,0.17711 -2.40721,4.26549 -3.74098,7.86083 -2.03305,5.48036 -3.36936,11.13225 -3.653,15.45024 l -0.16412,2.49849 h 16.31178 16.31178 z m 40.08385,8.90862 c -0.54703,-5.58504 -1.70627,-10.47906 -3.90132,-16.47031 -1.44175,-3.93517 -3.42549,-7.83481 -3.92515,-7.71604 -0.2063,0.049 -1.80384,0.49976 -3.55009,1.0016 -4.72699,1.35844 -11.56837,2.67265 -16.5847,3.18588 l -4.44968,0.45525 v 10.66478 10.66478 h 16.29294 16.29293 z m 24.47341,0.52917 c -10e-4,-1.71529 -0.68246,-5.78605 -1.44962,-8.6651 -2.38547,-8.95242 -6.62989,-17.1997 -12.29631,-23.89283 l -0.51599,-0.60949 -2.08197,1.20088 c -1.14509,0.66048 -3.47232,1.86176 -5.17163,2.6695 -1.69931,0.80775 -3.08966,1.56601 -3.08966,1.68503 0,0.11902 0.66226,1.60966 1.4717,3.31253 2.64657,5.56781 5.05447,13.74708 6.05359,20.56313 0.22672,1.54664 0.41221,3.22344 0.41221,3.72621 0,0.50277 0.0794,0.99351 0.17639,1.09052 0.097,0.097 3.84748,0.17639 8.33437,0.17639 h 8.15799 l -0.001,-1.25677 z M 888.22623,462.89885 V 451.7929 l -0.65245,0.24806 c -2.04327,0.77684 -6.64308,3.57088 -9.14281,5.55355 -2.84686,2.25801 -6.78939,6.31642 -9.14581,9.41463 -1.22408,1.60942 -2.2256,3.05098 -2.2256,3.20346 0,0.91228 14.01091,3.55111 19.9099,3.74985 l 1.25677,0.0423 z m 15.34583,10.41092 c 5.39433,-0.76563 13.22917,-2.56654 13.22917,-3.04084 0,-0.67186 -3.45536,-4.99881 -6.59406,-8.25736 -3.42865,-3.55956 -8.28445,-7.20908 -12.23424,-9.195 l -2.07379,-1.04268 v 11.14123 11.14123 l 2.4474,-0.17613 c 1.34607,-0.0969 3.69755,-0.35358 5.22552,-0.57045 z m -42.67063,-7.97428 c 3.84878,-5.90908 10.74056,-12.86761 15.76319,-15.91586 0.55336,-0.33584 0.9648,-0.65192 0.91431,-0.70241 -0.17671,-0.17671 -5.60021,1.50734 -7.8509,2.43779 -5.74731,2.37595 -12.11365,6.13782 -16.4268,9.70657 -1.23693,1.02345 -2.3014,1.90188 -2.3655,1.95207 -0.48781,0.38193 7.03446,4.49639 8.34072,4.56214 0.15767,0.008 0.88892,-0.9102 1.62498,-2.0403 z m 67.2227,0.30987 c 1.49817,-0.78503 3.13885,-1.70927 3.64596,-2.05386 l 0.92201,-0.62652 -2.63878,-2.1576 c -5.31926,-4.34929 -12.71363,-8.40592 -19.56856,-10.73552 -1.94609,-0.66136 -3.66605,-1.20248 -3.82212,-1.20248 -0.15607,0 0.24556,0.33756 0.89251,0.75013 1.69363,1.08004 4.96207,3.72433 7.12239,5.76227 2.10418,1.98497 6.65567,7.52402 8.40931,10.23391 1.36441,2.10842 1.07345,2.1067 5.03728,0.0297 z M 822.15939,444.91134 c -0.97576,-0.59495 -1.66651,-1.7729 -1.66646,-2.84184 2e-5,-0.40741 0.46595,-2.28856 1.03539,-4.18033 1.69964,-5.64644 1.85323,-6.35984 1.51343,-7.02972 -0.16494,-0.32517 -1.37146,-1.3515 -2.68114,-2.28072 -5.27918,-3.74558 -5.82577,-4.19339 -6.29824,-5.15998 -0.66234,-1.35503 -0.26076,-2.83713 1.03694,-3.82693 l 0.93987,-0.71688 5.52816,-0.0179 5.52816,-0.0179 0.65285,-0.66146 c 0.48014,-0.48647 0.97411,-1.8069 1.86728,-4.99148 1.52723,-5.44525 1.75873,-5.98799 2.83374,-6.6434 1.08857,-0.66368 2.22312,-0.68074 3.25707,-0.049 1.0483,0.64055 1.23233,1.04882 2.6429,5.86301 2.03678,6.95143 1.39004,6.44859 8.33731,6.48219 4.60729,0.0223 5.24109,0.079 5.92307,0.52963 1.46963,0.97118 1.91286,3.21069 0.89616,4.52802 -0.75976,0.98441 -0.77233,0.99457 -4.89905,3.95927 -2.51833,1.8092 -3.55232,2.71056 -3.67637,3.20481 -0.1168,0.46537 0.27936,2.19322 1.22561,5.34551 0.769,2.56182 1.45152,4.96418 1.5167,5.33857 0.17853,1.02549 -0.57777,2.54675 -1.56551,3.14897 -1.434,0.87428 -2.33054,0.70406 -4.63591,-0.88019 -1.13341,-0.77888 -3.12487,-2.1481 -4.42545,-3.04271 -1.30059,-0.89461 -2.61943,-1.62657 -2.93076,-1.62657 -0.31133,0 -1.47565,0.62508 -2.5874,1.38906 -1.11174,0.76399 -3.10403,2.13321 -4.4273,3.04271 -2.65566,1.82527 -3.49357,2.01778 -4.94105,1.13519 z m 115.5263,-0.0811 c -0.50409,-0.33971 -1.05398,-1.03134 -1.26887,-1.59594 -0.41328,-1.08585 -0.54824,-0.46979 1.84398,-8.4172 0.88254,-2.93197 0.92755,-3.59462 0.29652,-4.36578 -0.25143,-0.30726 -2.06448,-1.69349 -4.02901,-3.08052 -4.56698,-3.22446 -4.90726,-3.58655 -4.84647,-5.15713 0.0553,-1.42774 0.67327,-2.3899 1.95486,-3.0434 0.76836,-0.39179 1.66863,-0.46267 5.88131,-0.46302 3.87355,-2.6e-4 5.14163,-0.087 5.73136,-0.39201 0.82327,-0.42573 1.06996,-1.03249 2.75156,-6.7675 1.10269,-3.76067 1.53378,-4.61836 2.59783,-5.1686 1.07588,-0.55636 2.70256,-0.35056 3.55439,0.44968 0.61637,0.57906 0.83479,1.1847 2.88387,7.99629 0.42832,1.42386 0.9826,2.64923 1.41954,3.13824 l 0.71683,0.80228 5.07537,-0.0356 c 5.56023,-0.0389 6.39121,0.12172 7.42471,1.4356 0.68224,0.86733 0.78333,2.88648 0.18713,3.73767 -0.21254,0.30345 -2.19278,1.84639 -4.40053,3.42874 -2.20774,1.58236 -4.18563,3.13884 -4.39531,3.45885 -0.3412,0.52073 -0.29695,0.89626 0.42128,3.57544 0.44139,1.64648 1.1049,3.87765 1.47448,4.95817 0.36957,1.08051 0.67151,2.33067 0.67096,2.77812 -10e-4,1.09112 -0.84338,2.40911 -1.88245,2.94644 -1.47975,0.76521 -2.55058,0.40235 -5.7218,-1.93884 -3.65086,-2.6953 -5.39875,-3.76592 -6.14822,-3.76592 -0.32894,0 -1.98264,0.97448 -3.6749,2.1655 -5.53162,3.89319 -5.57688,3.91992 -6.63618,3.91992 -0.59331,0 -1.35049,-0.24117 -1.88224,-0.59952 z M 880.98305,428.4633 c -1.34273,-0.35911 -2.54641,-1.88125 -2.54641,-3.22016 0,-0.34854 0.5946,-2.56144 1.32133,-4.91754 0.72673,-2.35611 1.39469,-4.74261 1.48436,-5.30335 0.15714,-0.98272 0.11273,-1.05928 -1.2302,-2.1208 -0.76628,-0.60571 -2.79893,-2.11099 -4.517,-3.34507 -2.66355,-1.91321 -3.16312,-2.38631 -3.3909,-3.21126 -0.4637,-1.67937 0.26611,-3.32716 1.74779,-3.94625 0.62335,-0.26045 2.22218,-0.36078 5.74953,-0.36078 2.68733,0 5.18524,-0.11374 5.55091,-0.25277 1.0266,-0.39031 1.40478,-1.1944 2.77456,-5.89935 1.4832,-5.0945 1.93767,-5.99735 3.27515,-6.5064 1.18924,-0.45263 2.07771,-0.2544 3.10009,0.69168 0.63026,0.58323 0.98808,1.43424 1.86102,4.42622 1.40945,4.83082 2.03906,6.38249 2.84795,7.01875 0.6094,0.47936 1.08839,0.52187 5.8803,0.52187 4.99229,0 5.25539,0.026 6.11203,0.60326 1.08906,0.73392 1.55526,1.59501 1.56043,2.88217 0.005,1.26475 -0.7349,2.13205 -3.35929,3.93724 -3.53943,2.43461 -5.92618,4.25118 -6.06672,4.61743 -0.14882,0.38781 0.14878,1.5958 1.56402,6.34844 1.35649,4.55539 1.39724,4.89442 0.74252,6.17777 -0.92005,1.80345 -2.98523,2.42601 -4.65059,1.40196 -0.43656,-0.26845 -2.33802,-1.58201 -4.22547,-2.91902 -1.88745,-1.33701 -3.71359,-2.50167 -4.05809,-2.58813 -0.46554,-0.11684 -1.04496,0.13394 -2.25681,0.9768 -7.57939,5.27155 -7.788,5.38377 -9.27051,4.98729 z"
       id="path929" /></g></svg>
