<svg width="15" height="18" viewBox="0 0 15 18" fill="none" xmlns="http://www.w3.org/2000/svg">
<path fill-rule="evenodd" clip-rule="evenodd" d="M2.71148 1.79995C3.89125 1.79995 5.05498 2.07464 6.11019 2.6023L7.39984 3.24715V13.5528L6.46803 13.0867C5.30163 12.5036 4.0154 12.2 2.71134 12.2H1.79982V1.79974L2.71148 1.79995ZM6.46817 1.88673L7.79994 2.55252L7.62103 14.5576L6.11019 13.8022C5.05498 13.2746 3.89125 12.9999 2.71148 12.9999H1.39991C1.17906 12.9999 1 12.8208 1 12.5998V1.40005C1 1.17906 1.17906 1 1.39991 1H2.71148C4.01553 1 5.30176 1.3036 6.46817 1.88673ZM7.79994 2.55252L7.62108 14.5576C7.733 14.6136 7.86563 14.6142 7.97883 14.5576L9.48967 13.8022C10.5449 13.2746 11.7086 12.9999 12.8885 12.9999H14.1999C14.4208 12.9999 14.5999 12.8208 14.5999 12.5998V1.40005C14.5999 1.17906 14.4208 1 14.1999 1H12.8885C11.5843 1 10.2982 1.3036 9.13183 1.88673L7.79994 2.55252ZM8.20002 3.24715V13.5528L9.13183 13.0867C10.2982 12.5036 11.5843 12.2 12.8885 12.2H13.7999V1.79974L12.8885 1.79995C11.7086 1.79995 10.5449 2.07464 9.48967 2.6023L8.20002 3.24715ZM1.3999 15.4H2.71147H2.71161C3.89138 15.4 5.05511 15.6747 6.11032 16.2024L7.62115 16.9577C7.73381 17.0141 7.86639 17.0141 7.97903 16.9577L9.48987 16.2024C10.5451 15.6747 11.7088 15.4 12.8887 15.4H14.2001V14.6001H12.8887C11.5845 14.6001 10.2984 14.9037 9.13202 15.4868L7.80009 16.1528L6.46816 15.4868C5.30166 14.9037 4.01539 14.6001 2.71147 14.6001H1.3999V15.4Z" fill="#ABABAB"/>
<path d="M6.11019 2.6023L5.99837 2.82591L5.99838 2.82591L6.11019 2.6023ZM2.71148 1.79995L2.71142 2.04995H2.71148V1.79995ZM7.39984 3.24715H7.64984V3.09264L7.51165 3.02354L7.39984 3.24715ZM7.39984 13.5528L7.28801 13.7764L7.64984 13.9573V13.5528H7.39984ZM6.46803 13.0867L6.57986 12.8631L6.57982 12.8631L6.46803 13.0867ZM1.79982 12.2H1.54982V12.45H1.79982V12.2ZM1.79982 1.79974L1.79987 1.54974L1.54982 1.54969V1.79974H1.79982ZM6.46817 1.88673L6.35637 2.11034L6.35638 2.11035L6.46817 1.88673ZM7.62103 14.5576L7.50923 14.7812L7.86507 14.9591L7.871 14.5613L7.62103 14.5576ZM6.11019 13.8022L5.99837 14.0258L5.99839 14.0258L6.11019 13.8022ZM7.62108 14.5576L7.37111 14.5539L7.36877 14.7109L7.50915 14.7812L7.62108 14.5576ZM7.97883 14.5576L7.86704 14.334L7.86703 14.334L7.97883 14.5576ZM9.48967 13.8022L9.60146 14.0258L9.60148 14.0258L9.48967 13.8022ZM9.13183 1.88673L9.24361 2.11035L9.24362 2.11034L9.13183 1.88673ZM8.20002 13.5528H7.95002V13.9573L8.31185 13.7764L8.20002 13.5528ZM8.20002 3.24715L8.08821 3.02354L7.95002 3.09264V3.24715H8.20002ZM9.13183 13.0867L9.02003 12.8631L9.02 12.8631L9.13183 13.0867ZM13.7999 12.2V12.45H14.0499V12.2H13.7999ZM13.7999 1.79974H14.0499V1.54969L13.7998 1.54974L13.7999 1.79974ZM12.8885 1.79995V2.04995H12.8886L12.8885 1.79995ZM9.48967 2.6023L9.60147 2.82591L9.60148 2.82591L9.48967 2.6023ZM1.3999 15.4H1.1499V15.65H1.3999V15.4ZM6.11032 16.2024L5.9985 16.426L5.99852 16.426L6.11032 16.2024ZM7.62115 16.9577L7.73305 16.7342L7.73295 16.7341L7.62115 16.9577ZM7.97903 16.9577L7.86723 16.7341L7.86712 16.7342L7.97903 16.9577ZM9.48987 16.2024L9.60166 16.426L9.60168 16.426L9.48987 16.2024ZM14.2001 15.4V15.65H14.4501V15.4H14.2001ZM14.2001 14.6001H14.4501V14.3501H14.2001V14.6001ZM9.13202 15.4868L9.02023 15.2632L9.02021 15.2632L9.13202 15.4868ZM7.80009 16.1528L7.68828 16.3764L7.80009 16.4323L7.9119 16.3764L7.80009 16.1528ZM6.46816 15.4868L6.57997 15.2632L6.57994 15.2632L6.46816 15.4868ZM1.3999 14.6001V14.3501H1.1499V14.6001H1.3999ZM6.222 2.3787C5.13207 1.83367 3.93006 1.54995 2.71148 1.54995V2.04995C3.85244 2.04995 4.97789 2.3156 5.99837 2.82591L6.222 2.3787ZM7.51165 3.02354L6.22199 2.3787L5.99838 2.82591L7.28804 3.47075L7.51165 3.02354ZM7.64984 13.5528V3.24715H7.14984V13.5528H7.64984ZM6.3562 13.3103L7.28801 13.7764L7.51167 13.3292L6.57986 12.8631L6.3562 13.3103ZM2.71134 12.45C3.97659 12.45 5.22455 12.7445 6.35624 13.3103L6.57982 12.8631C5.37871 12.2626 4.0542 11.95 2.71134 11.95V12.45ZM1.79982 12.45H2.71134V11.95H1.79982V12.45ZM1.54982 1.79974V12.2H2.04982V1.79974H1.54982ZM2.71153 1.54995L1.79987 1.54974L1.79976 2.04974L2.71142 2.04995L2.71153 1.54995ZM7.91173 2.32891L6.57996 1.66312L6.35638 2.11035L7.68815 2.77614L7.91173 2.32891ZM7.871 14.5613L8.04991 2.55625L7.54996 2.5488L7.37105 14.5539L7.871 14.5613ZM5.99839 14.0258L7.50923 14.7812L7.73282 14.334L6.22198 13.5786L5.99839 14.0258ZM2.71148 13.2499C3.85244 13.2499 4.97789 13.5155 5.99837 14.0258L6.222 13.5786C5.13207 13.0336 3.93006 12.7499 2.71148 12.7499V13.2499ZM1.39991 13.2499H2.71148V12.7499H1.39991V13.2499ZM0.75 12.5998C0.75 12.9588 1.04094 13.2499 1.39991 13.2499V12.7499C1.31719 12.7499 1.25 12.6828 1.25 12.5998H0.75ZM0.75 1.40005V12.5998H1.25V1.40005H0.75ZM1.39991 0.75C1.04093 0.75 0.75 1.04105 0.75 1.40005H1.25C1.25 1.31708 1.31719 1.25 1.39991 1.25V0.75ZM2.71148 0.75H1.39991V1.25H2.71148V0.75ZM6.57996 1.66312C5.37885 1.06263 4.05434 0.75 2.71148 0.75V1.25C3.97673 1.25 5.22468 1.54457 6.35637 2.11034L6.57996 1.66312ZM7.54996 2.5488L7.37111 14.5539L7.87106 14.5613L8.04991 2.55625L7.54996 2.5488ZM7.50915 14.7812C7.69122 14.8723 7.90675 14.8731 8.09064 14.7812L7.86703 14.334C7.8245 14.3552 7.77477 14.355 7.73301 14.3341L7.50915 14.7812ZM8.09063 14.7812L9.60146 14.0258L9.37787 13.5786L7.86704 14.334L8.09063 14.7812ZM9.60148 14.0258C10.622 13.5155 11.7474 13.2499 12.8885 13.2499V12.7499C11.6698 12.7499 10.4678 13.0336 9.37786 13.5786L9.60148 14.0258ZM12.8885 13.2499H14.1999V12.7499H12.8885V13.2499ZM14.1999 13.2499C14.5589 13.2499 14.8499 12.9588 14.8499 12.5998H14.3499C14.3499 12.6828 14.2827 12.7499 14.1999 12.7499V13.2499ZM14.8499 12.5998V1.40005H14.3499V12.5998H14.8499ZM14.8499 1.40005C14.8499 1.04105 14.5589 0.75 14.1999 0.75V1.25C14.2827 1.25 14.3499 1.31708 14.3499 1.40005H14.8499ZM14.1999 0.75H12.8885V1.25H14.1999V0.75ZM12.8885 0.75C11.5455 0.75 10.2211 1.06264 9.02003 1.66312L9.24362 2.11034C10.3753 1.54457 11.6231 1.25 12.8885 1.25V0.75ZM9.02004 1.66312L7.68815 2.32891L7.91172 2.77614L9.24361 2.11035L9.02004 1.66312ZM8.45002 13.5528V3.24715H7.95002V13.5528H8.45002ZM9.02 12.8631L8.08819 13.3292L8.31185 13.7764L9.24366 13.3103L9.02 12.8631ZM12.8885 11.95C11.5455 11.95 10.2211 12.2626 9.02003 12.8631L9.24362 13.3103C10.3753 12.7445 11.6231 12.45 12.8885 12.45V11.95ZM13.7999 11.95H12.8885V12.45H13.7999V11.95ZM13.5499 1.79974V12.2H14.0499V1.79974H13.5499ZM12.8886 2.04995L13.8 2.04974L13.7998 1.54974L12.8885 1.54995L12.8886 2.04995ZM9.60148 2.82591C10.622 2.3156 11.7474 2.04995 12.8885 2.04995V1.54995C11.6698 1.54995 10.4678 1.83367 9.37786 2.3787L9.60148 2.82591ZM8.31182 3.47075L9.60147 2.82591L9.37786 2.3787L8.08821 3.02354L8.31182 3.47075ZM2.71147 15.15H1.3999V15.65H2.71147V15.15ZM2.71161 15.15H2.71147V15.65H2.71161V15.15ZM6.22214 15.9788C5.13219 15.4337 3.93018 15.15 2.71161 15.15V15.65C3.85258 15.65 4.97802 15.9157 5.9985 16.426L6.22214 15.9788ZM7.73295 16.7341L6.22211 15.9788L5.99852 16.426L7.50936 17.1813L7.73295 16.7341ZM7.86712 16.7342C7.82493 16.7553 7.77528 16.7553 7.73305 16.7342L7.50926 17.1813C7.69234 17.2729 7.90786 17.2729 8.09094 17.1813L7.86712 16.7342ZM9.37807 15.9788L7.86723 16.7341L8.09082 17.1813L9.60166 16.426L9.37807 15.9788ZM12.8887 15.15C11.67 15.15 10.468 15.4337 9.37805 15.9788L9.60168 16.426C10.6222 15.9157 11.7476 15.65 12.8887 15.65V15.15ZM14.2001 15.15H12.8887V15.65H14.2001V15.15ZM13.9501 14.6001V15.4H14.4501V14.6001H13.9501ZM12.8887 14.8501H14.2001V14.3501H12.8887V14.8501ZM9.24382 15.7104C10.3755 15.1446 11.6233 14.8501 12.8887 14.8501V14.3501C11.5457 14.3501 10.2213 14.6627 9.02023 15.2632L9.24382 15.7104ZM7.9119 16.3764L9.24384 15.7104L9.02021 15.2632L7.68828 15.9292L7.9119 16.3764ZM6.35635 15.7104L7.68828 16.3764L7.9119 15.9292L6.57997 15.2632L6.35635 15.7104ZM2.71147 14.8501C3.97658 14.8501 5.22457 15.1446 6.35638 15.7104L6.57994 15.2632C5.37874 14.6627 4.0542 14.3501 2.71147 14.3501V14.8501ZM1.3999 14.8501H2.71147V14.3501H1.3999V14.8501ZM1.6499 15.4V14.6001H1.1499V15.4H1.6499ZM7.54996 2.5488L7.37111 14.5539L7.87106 14.5613L8.04991 2.55625L7.54996 2.5488Z" fill="#ABABAB"/>
</svg>
